<svg width="197" height="30" viewBox="0 0 197 30" fill="none" xmlns="http://www.w3.org/2000/svg">
<path d="M0.759766 24.3133C1.67188 24.0078 1.86494 23.1728 1.86494 21.1715V8.77081C1.86494 6.76949 1.67188 5.93445 0.759766 5.62899V5.24023H6.55945C12.8556 5.24023 14.2917 8.38205 14.2917 10.6333C14.2917 14.1083 11.8075 17.0558 6.14575 17.0558H4.79236V21.1715C4.79236 23.1728 4.98542 24.0078 5.89753 24.3133V24.7021H0.759766V24.3133ZM11.1712 11.3573C11.1712 8.96519 10.0109 5.68453 5.64734 5.68453C5.37154 5.68453 4.98542 5.7123 4.79039 5.74007V16.6115H6.00588C9.6228 16.6115 11.1692 14.4991 11.1692 11.3573H11.1712Z" fill="white"/>
<path d="M28.2917 20.144C26.6349 16.0839 26.497 14.7232 24.0661 14.7232H22.4369V21.1735C22.4369 23.1748 22.6299 24.0098 23.542 24.3153V24.704H18.4062V24.3153C19.3184 24.0098 19.5114 23.1748 19.5114 21.1735V8.77081C19.5114 6.76949 19.3184 5.93445 18.4062 5.62899V5.24023H24.2059C30.2263 5.24023 31.4693 7.43594 31.4693 9.68916C31.4693 12.2478 29.7298 14.1659 26.0558 14.6102C29.1762 14.9711 29.783 16.2783 31.2467 19.9754C32.7104 23.6726 33.0138 24.3411 34.0362 24.3411C34.1741 24.3411 34.312 24.3411 34.4499 24.3133V24.7021C33.8156 24.8687 32.9311 24.8964 32.4622 24.8964C30.1691 24.8964 29.6175 23.3949 28.2917 20.1421V20.144ZM28.5399 10.3576C28.5399 8.10635 27.1038 5.68652 23.6524 5.68652C23.2662 5.68652 22.8525 5.71428 22.4369 5.76982V14.2769H24.204C27.352 14.2769 28.5399 12.4978 28.5399 10.3556V10.3576Z" fill="white"/>
<path d="M37.6797 24.3133C38.5918 24.0078 38.7849 23.1728 38.7849 21.1715V8.77081C38.7849 6.76949 38.5918 5.93445 37.6797 5.62899V5.24023H42.8155V5.62899C41.9034 5.93445 41.7103 6.76949 41.7103 8.77081V21.1715C41.7103 23.1728 41.9034 24.0078 42.8155 24.3133V24.7021H37.6797V24.3133Z" fill="white"/>
<path d="M46.2129 5.62899V5.24023H51.2935V5.62899C50.3814 5.93445 50.7419 6.65842 51.459 8.5209L56.5396 21.5047L61.5375 8.5209C62.2566 6.65842 62.0615 5.85114 61.1238 5.62899V5.24023H64.327V5.62899C63.4977 5.93445 62.7806 6.65842 62.0635 8.5209L55.8225 24.7021H54.7725L48.2834 8.5209C47.5663 6.65842 46.8472 5.93445 46.2129 5.62899Z" fill="white"/>
<path d="M62.8086 24.3128C63.638 24.0074 64.3826 23.2834 65.1293 21.4209L70.2926 8.52042C70.5133 7.96505 70.4857 7.51877 70.2375 7.01893L69.8789 6.23943L72.5857 5.01562L79.4334 21.4487C80.2076 23.2834 80.9247 24.0074 81.5591 24.3128V24.7016H76.5336V24.3128C77.4457 24.0074 77.0576 23.2834 76.2854 21.4487L74.6286 17.4441H67.2549L65.6533 21.4209C64.9066 23.2834 65.0741 24.0907 66.0118 24.3128V24.7016H62.8086V24.3128ZM74.4355 16.9998L70.8738 8.40736L67.4223 16.9998H74.4375H74.4355Z" fill="white"/>
<path d="M86.3361 24.3133C87.2482 24.0078 87.4412 23.1728 87.4412 21.1715V5.74007H86.5863C84.1277 5.74007 82.8846 6.43428 81.8642 8.65974L81.5332 8.6042L81.6987 5.24023H96.0856L96.2511 8.6042L95.9201 8.65974C94.8977 6.43627 93.6566 5.74007 91.198 5.74007H90.3962V21.1715C90.3962 23.1728 90.5893 24.0078 91.5014 24.3133V24.7021H86.338V24.3133H86.3361Z" fill="white"/>
<path d="M100.115 24.704V24.3153C101.027 24.0098 101.22 23.1748 101.22 21.1735V8.77081C101.22 6.76949 101.027 5.93445 100.115 5.62899V5.24023H113.371L113.675 9.16156L113.316 9.24486C112.211 6.51957 110.472 5.68652 107.379 5.68652H104.148V14.027H106.799C110.168 14.027 111.135 13.3606 111.577 11.9146H111.963V16.5857H111.577C111.135 15.1397 110.168 14.4733 106.799 14.4733H104.148V22.8693C104.148 23.7599 104.644 24.2597 105.529 24.2597H108.18C110.97 24.2597 112.875 23.4247 113.925 20.5903L114.283 20.6459L114.09 24.706H100.117L100.115 24.704Z" fill="white"/>
<path d="M126.486 24.704V24.3153C127.398 24.0098 127.592 23.1748 127.592 21.1735V8.77081C127.592 6.76949 127.398 5.93445 126.486 5.62899V5.24023H131.622V5.62899C130.71 5.93445 130.517 6.76949 130.517 8.77081V22.8118C130.517 23.7024 131.013 24.2022 131.898 24.2022H134.163C136.953 24.2022 138.389 23.5358 139.492 21.1437L139.851 21.1992L139.63 24.7021H126.484L126.486 24.704Z" fill="white"/>
<path d="M143.855 24.3133C144.768 24.0078 144.961 23.1728 144.961 21.1715V8.77081C144.961 6.76949 144.768 5.93445 143.855 5.62899V5.24023H148.991V5.62899C148.079 5.93445 147.886 6.76949 147.886 8.77081V21.1715C147.886 23.1728 148.079 24.0078 148.991 24.3133V24.7021H143.855V24.3133Z" fill="white"/>
<path d="M153.659 24.3133C154.571 24.0078 154.764 23.1728 154.764 21.1715V10.4389C154.764 7.04718 154.157 6.07329 152.887 5.62899V5.24023H157.03L163.85 16.6392L170.339 5.24023H174.261V5.62899C172.991 6.07329 172.384 7.04718 172.384 10.4389V21.1715C172.384 23.1728 172.577 24.0078 173.489 24.3133V24.7021H168.353V24.3133C169.265 24.0078 169.458 23.1728 169.458 21.1715V7.71561L162.831 19.4221H162.197L155.265 7.96751V19.5054C155.265 22.8971 155.926 23.871 157.363 24.3153V24.704H153.663V24.3153L153.659 24.3133Z" fill="white"/>
<path d="M176.494 14.8873C176.494 9.38121 180.527 5.01758 186.38 5.01758C191.047 5.01758 196.237 8.2427 196.237 15.0539C196.237 21.8652 191.019 24.9792 186.38 24.9792C181.74 24.9792 176.494 21.8652 176.494 14.8853V14.8873ZM193.45 17.2516C193.036 11.329 189.723 5.74155 184.943 5.74155C181.189 5.74155 179.061 8.68898 179.364 13.1934C179.751 18.7551 183.257 24.1204 187.954 24.1204C192.179 24.1204 193.698 20.923 193.45 17.2536V17.2516Z" fill="white"/>
</svg>
