<svg width="144" height="79" viewBox="0 0 144 79" fill="none" xmlns="http://www.w3.org/2000/svg">
<path d="M31.2264 71.5688H33.997V72.157H31.8831V73.1301H33.7565V73.7183H31.8831V74.7231H34.0244V75.3113H31.2264V71.5703V71.5688Z" fill="#161E30"/>
<path d="M38.7101 71.5688L37.4069 73.3968L38.7634 75.3098H37.9887L37.0008 73.8826L36.0187 75.3098H35.2656L36.6163 73.4069L35.3189 71.5688H36.0936L37.0224 72.9268L37.957 71.5688H38.7101Z" fill="#161E30"/>
<path d="M39.7556 73.4501V73.44C39.7556 72.3761 40.5505 71.5054 41.6823 71.5054C42.3706 71.5054 42.7868 71.7461 43.1453 72.0878L42.7234 72.5736C42.4239 72.2954 42.1042 72.108 41.6766 72.108C40.9666 72.108 40.4439 72.6961 40.4439 73.4285V73.4386C40.4439 74.1709 40.9623 74.7634 41.6766 74.7634C42.1359 74.7634 42.4297 74.5818 42.7493 74.2819L43.1713 74.7101C42.781 75.1166 42.3548 75.3732 41.6549 75.3732C40.5663 75.3732 39.7542 74.5227 39.7542 73.4487L39.7556 73.4501Z" fill="#161E30"/>
<path d="M44.6069 71.5688H45.2636V74.7116H47.2277V75.3098H44.6069V71.5688Z" fill="#161E30"/>
<path d="M48.4921 73.7226V71.5688H49.1487V73.6967C49.1487 74.3915 49.5058 74.7606 50.0933 74.7606C50.6809 74.7606 51.0337 74.4132 51.0337 73.7241V71.5703H51.6903V73.6923C51.6903 74.8096 51.061 75.3704 50.0833 75.3704C49.1055 75.3704 48.4921 74.8096 48.4921 73.7241V73.7226Z" fill="#161E30"/>
<path d="M53.0871 74.7648L53.4817 74.2948C53.8388 74.6048 54.2017 74.7806 54.661 74.7806C55.0671 74.7806 55.3234 74.5889 55.3234 74.3107V74.3006C55.3234 74.0339 55.1737 73.8897 54.4796 73.7283C53.6847 73.5365 53.2354 73.3001 53.2354 72.611V72.6009C53.2354 71.9594 53.7697 71.5154 54.5113 71.5154C55.0556 71.5154 55.4876 71.6812 55.8677 71.9853L55.5149 72.4827C55.178 72.2319 54.8425 72.0978 54.5012 72.0978C54.1167 72.0978 53.8921 72.2953 53.8921 72.5418V72.5519C53.8921 72.8402 54.0634 72.9685 54.7834 73.1401C55.574 73.3318 55.9786 73.6158 55.9786 74.2357V74.2458C55.9786 74.9464 55.4285 75.3631 54.6437 75.3631C54.0721 75.3631 53.5335 75.1656 53.0842 74.7648H53.0871Z" fill="#161E30"/>
<path d="M57.5381 71.5688H58.1947V75.3098H57.5381V71.5688Z" fill="#161E30"/>
<path d="M59.6204 71.5688H60.3461L61.4722 74.4449L62.594 71.5688H63.3039L61.7559 75.3372H61.1741L59.6204 71.5688Z" fill="#161E30"/>
<path d="M64.6906 71.5688H67.4611V72.157H65.3472V73.1301H67.2206V73.7183H65.3472V74.7231H67.4885V75.3113H64.6906V71.5703V71.5688Z" fill="#161E30"/>
<path d="M71.3621 71.5688H74.1326V72.157H72.0187V73.1301H73.8921V73.7183H72.0187V74.7231H74.16V75.3113H71.3621V71.5703V71.5688Z" fill="#161E30"/>
<path d="M78.8458 71.5688L77.5426 73.3968L78.8991 75.3098H78.1244L77.1366 73.8826L76.1545 75.3098H75.4014L76.7521 73.4069L75.4546 71.5688H76.2294L77.1582 72.9268L78.0927 71.5688H78.8458Z" fill="#161E30"/>
<path d="M80.3232 71.5688H81.7964C82.6719 71.5688 83.2162 72.0662 83.2162 72.8202V72.8303C83.2162 73.6693 82.5437 74.1075 81.7215 74.1075H80.9799V75.3098H80.3232V71.5688ZM81.7431 73.515C82.2399 73.515 82.5495 73.2368 82.5495 72.8476V72.8375C82.5495 72.3992 82.2341 72.17 81.7431 72.17H80.9799V73.5165H81.7431V73.515Z" fill="#161E30"/>
<path d="M84.636 71.5688H87.4065V72.157H85.2926V73.1301H87.1661V73.7183H85.2926V74.7231H87.4339V75.3113H84.636V71.5703V71.5688Z" fill="#161E30"/>
<path d="M88.959 71.5688H90.6251C91.0945 71.5688 91.4631 71.7072 91.7036 71.9437C91.9009 72.1469 92.0132 72.4252 92.0132 72.751V72.7611C92.0132 73.3752 91.6446 73.7442 91.1276 73.8942L92.1371 75.3098H91.358L90.4393 74.0052H89.6171V75.3098H88.9604V71.5688H88.959ZM90.5761 73.4242C91.0455 73.4242 91.3451 73.1777 91.3451 72.7985V72.7885C91.3451 72.3877 91.0571 72.1686 90.5703 72.1686H89.6142V73.4242H90.5747H90.5761Z" fill="#161E30"/>
<path d="M93.6014 71.5688H94.2581V75.3098H93.6014V71.5688Z" fill="#161E30"/>
<path d="M96.0034 71.5688H98.774V72.157H96.6601V73.1301H98.5335V73.7183H96.6601V74.7231H98.8013V75.3113H96.0034V71.5703V71.5688Z" fill="#161E30"/>
<path d="M100.326 71.5688H100.935L102.937 74.1551V71.5688H103.584V75.3098H103.033L100.973 72.6486V75.3098H100.326V71.5688Z" fill="#161E30"/>
<path d="M105.124 73.4501V73.44C105.124 72.3761 105.919 71.5054 107.051 71.5054C107.739 71.5054 108.156 71.7461 108.514 72.0878L108.092 72.5736C107.793 72.2954 107.473 72.108 107.045 72.108C106.335 72.108 105.813 72.6961 105.813 73.4285V73.4386C105.813 74.1709 106.331 74.7634 107.045 74.7634C107.505 74.7634 107.798 74.5818 108.118 74.2819L108.54 74.7101C108.15 75.1166 107.724 75.3732 107.024 75.3732C105.935 75.3732 105.123 74.5227 105.123 73.4487L105.124 73.4501Z" fill="#161E30"/>
<path d="M109.977 71.5688H112.748V72.157H110.634V73.1301H112.507V73.7183H110.634V74.7231H112.775V75.3113H109.977V71.5703V71.5688Z" fill="#161E30"/>
<path d="M2.52429 62.5992C3.17229 62.3829 3.30909 61.7933 3.30909 60.3791V51.6141C3.30909 50.1999 3.17229 49.6102 2.52429 49.394V49.1187H6.64701C11.1225 49.1187 12.1435 51.3387 12.1435 52.9317C12.1435 55.3882 10.3766 57.4714 6.35325 57.4714H5.39133V60.3791C5.39133 61.7933 5.52813 62.3829 6.17613 62.5992V62.8745H2.52429V62.5992ZM9.92445 53.4421C9.92445 51.7525 9.09933 49.4329 5.99901 49.4329C5.80317 49.4329 5.52813 49.4531 5.38989 49.4718V57.1557H6.25389C8.82573 57.1557 9.92445 55.6621 9.92445 53.4421Z" fill="#161E30"/>
<path d="M22.0938 59.6511C20.9159 56.7823 20.818 55.8193 19.09 55.8193H17.9323V60.3791C17.9323 61.7933 18.0691 62.3829 18.7171 62.5992V62.8745H15.0667V62.5992C15.7147 62.3829 15.8515 61.7933 15.8515 60.3791V51.6141C15.8515 50.1999 15.7147 49.6102 15.0667 49.394V49.1187H19.1894C23.469 49.1187 24.3518 50.6713 24.3518 52.2628C24.3518 54.0706 23.1148 55.4272 20.5041 55.7414C22.7217 55.9966 23.1537 56.9207 24.1948 59.5343C25.2345 62.148 25.4505 62.6194 26.1777 62.6194C26.2756 62.6194 26.3735 62.6194 26.4729 62.5992V62.8745C26.0207 62.9928 25.3929 63.0115 25.0603 63.0115C23.4316 63.0115 23.0385 61.9505 22.0967 59.6511H22.0938ZM22.271 52.7342C22.271 51.1427 21.25 49.4329 18.7963 49.4329C18.5212 49.4329 18.2275 49.4531 17.9323 49.492V55.505H19.1879C21.4257 55.505 22.2695 54.2479 22.2695 52.7342H22.271Z" fill="#161E30"/>
<path d="M28.7683 62.5992C29.4163 62.3829 29.5531 61.7933 29.5531 60.3791V51.6141C29.5531 50.1999 29.4163 49.6102 28.7683 49.394V49.1187H32.4187V49.394C31.7707 49.6102 31.6339 50.1999 31.6339 51.6141V60.3791C31.6339 61.7933 31.7707 62.3829 32.4187 62.5992V62.8745H28.7683V62.5992Z" fill="#161E30"/>
<path d="M34.8321 49.3925V49.1172H38.4436V49.3925C37.7956 49.6088 38.0505 50.1191 38.5617 51.4367L42.1732 60.6141L45.7257 51.4367C46.2369 50.1206 46.0987 49.5497 45.432 49.3925V49.1172H47.7086V49.3925C47.1196 49.6088 46.6099 50.1191 46.0987 51.4367L41.662 62.8745H40.9161L36.3024 51.4367C35.7926 50.1206 35.2814 49.6088 34.8307 49.3925H34.8321Z" fill="#161E30"/>
<path d="M46.63 62.5991C47.219 62.3828 47.7489 61.8725 48.2788 60.5549L51.9494 51.4367C52.1063 51.0431 52.0862 50.7288 51.9105 50.3756L51.6556 49.8249L53.5794 48.96L58.4481 60.5736C58.9982 61.8711 59.5079 62.3814 59.9601 62.5976V62.873H56.3874V62.5976C57.0354 62.3814 56.7604 61.8711 56.2103 60.5736L55.0324 57.7437H49.7908L48.6518 60.5534C48.1218 61.8696 48.2399 62.4405 48.9066 62.5976V62.873H46.63V62.5976V62.5991ZM54.8942 57.4309L52.3612 51.3588L49.9074 57.4309H54.8927H54.8942Z" fill="#161E30"/>
<path d="M63.3543 62.5992C64.0023 62.3829 64.1391 61.7933 64.1391 60.3791V49.4718H63.5299C61.7832 49.4718 60.8991 49.9634 60.1733 51.5348L59.9371 51.4959L60.0552 49.1187H70.2821L70.4002 51.4959L70.164 51.5348C69.4383 49.962 68.5541 49.4718 66.8074 49.4718H66.2386V60.3791C66.2386 61.7933 66.3754 62.3829 67.0234 62.5992V62.8745H63.3528V62.5992H63.3543Z" fill="#161E30"/>
<path d="M73.1477 62.8731V62.5977C73.7957 62.3815 73.9325 61.7919 73.9325 60.3776V51.6126C73.9325 50.1984 73.7957 49.6088 73.1477 49.3925V49.1172H82.5696L82.7856 51.888L82.5307 51.9471C81.7459 50.0211 80.509 49.4315 78.3101 49.4315H76.0133V55.3277H77.8983C80.293 55.3277 80.9799 54.8563 81.2938 53.8342H81.5688V57.1354H81.2938C80.9799 56.1133 80.293 55.6419 77.8983 55.6419H76.0133V61.5771C76.0133 62.2056 76.3661 62.5602 76.9954 62.5602H78.8803C80.8632 62.5602 82.2168 61.9706 82.9627 59.9668L83.2176 60.0057L83.0808 62.8745H73.1477V62.8731Z" fill="#161E30"/>
<path d="M91.8936 62.8731V62.5977C92.5416 62.3815 92.6783 61.7919 92.6783 60.3776V51.6126C92.6783 50.1984 92.5416 49.6088 91.8936 49.3925V49.1172H95.5454V49.3925C94.8974 49.6088 94.7606 50.1984 94.7606 51.6126V61.5367C94.7606 62.1652 95.1134 62.5199 95.7412 62.5199H97.3511C99.334 62.5199 100.355 62.0485 101.14 60.3589L101.395 60.3978L101.238 62.8745H91.8936V62.8731Z" fill="#161E30"/>
<path d="M104.239 62.5992C104.887 62.3829 105.023 61.7933 105.023 60.3791V51.6141C105.023 50.1999 104.887 49.6102 104.239 49.394V49.1187H107.89V49.394C107.242 49.6102 107.106 50.1999 107.106 51.6141V60.3791C107.106 61.7933 107.242 62.3829 107.89 62.5992V62.8745H104.239V62.5992Z" fill="#161E30"/>
<path d="M111.207 62.5992C111.855 62.3829 111.992 61.7933 111.992 60.3791V52.7933C111.992 50.3959 111.56 49.7083 110.657 49.394V49.1187H113.602L118.45 57.1758L123.062 49.1187H125.85V49.394C124.947 49.7083 124.515 50.3959 124.515 52.7933V60.3791C124.515 61.7933 124.652 62.3829 125.3 62.5992V62.8745H121.648V62.5992C122.296 62.3829 122.433 61.7933 122.433 60.3791V50.8673L117.721 59.1408H117.271L112.343 51.0446V59.1999C112.343 61.5973 112.814 62.2849 113.835 62.5992V62.8745H111.204V62.5992H111.207Z" fill="#161E30"/>
<path d="M127.44 55.9359C127.44 52.045 130.306 48.96 134.467 48.96C137.785 48.96 141.476 51.2392 141.476 56.0541C141.476 60.8691 137.766 63.0705 134.467 63.0705C131.168 63.0705 127.44 60.8691 127.44 55.9374V55.9359ZM139.493 57.6068C139.199 53.4203 136.843 49.4703 133.446 49.4703C130.776 49.4703 129.264 51.5534 129.48 54.7365C129.755 58.6664 132.248 62.4592 135.586 62.4592C138.59 62.4592 139.668 60.1988 139.493 57.6053V57.6068Z" fill="#161E30"/>
<path d="M79.3527 36.2925H75.96C74.8181 36.2925 73.8908 35.3655 73.8908 34.2209V25.6462H75.6706C84.1522 25.6462 87.876 21.255 87.876 16.0782C87.876 12.7235 85.7247 8.04262 76.2912 8.04262H74.1773C74.4164 6.095 74.8354 4.44435 75.5468 4.20648V3.62695H67.8514V4.20648C68.5628 4.44435 68.9818 6.095 69.2208 8.04262H56.1255V8.62215C57.4906 9.0777 57.78 10.3204 57.78 13.3031V31.7774C57.78 34.7601 57.4906 36.0027 56.1255 36.4583V37.0378H63.8208V36.4583C62.4557 36.0027 62.1663 34.7601 62.1663 31.7774V25.6462H69.5074V31.7774C69.5074 34.7601 69.218 36.0027 67.8528 36.4583V37.0378H87.5477L87.8789 31.8192L87.3404 31.737C85.6858 35.2992 83.5344 36.2939 79.3556 36.2939L79.3527 36.2925ZM74.9261 8.70576C81.4637 8.70576 83.2018 13.5943 83.2018 17.1565C83.2018 21.8374 80.8848 24.9859 75.4647 24.9859H73.8922V13.3031C73.8922 12.0489 73.944 10.3218 74.1053 8.7072C74.5676 8.70576 74.8685 8.70432 74.9276 8.70432L74.9261 8.70576ZM62.1648 24.9845V8.78793C62.3218 8.76487 65.9477 8.74324 69.2957 8.72739C69.4556 10.3362 69.506 12.0546 69.506 13.3031V24.9845H62.1648Z" fill="#161E30"/>
</svg>
